<svg width="16" height="16" viewBox="0 0 16 16" fill="none" xmlns="http://www.w3.org/2000/svg">
<path d="M14.6666 5.99993V9.99993C14.6666 11.6666 14.3333 12.8333 13.5866 13.5866L9.33325 9.33326L14.4866 4.17993C14.6066 4.7066 14.6666 5.3066 14.6666 5.99993Z" stroke="#292D32" stroke-linecap="round" stroke-linejoin="round"/>
<path d="M14.4866 4.17992L4.17991 14.4866C2.17324 14.0266 1.33325 12.6399 1.33325 9.99992V5.99992C1.33325 2.66659 2.66659 1.33325 5.99992 1.33325H9.99992C12.6399 1.33325 14.0266 2.17325 14.4866 4.17992Z" stroke="#292D32" stroke-linecap="round" stroke-linejoin="round"/>
<path d="M13.5866 13.5866C12.8333 14.3333 11.6666 14.6666 9.99994 14.6666H5.99994C5.30661 14.6666 4.7066 14.6066 4.17993 14.4866L9.33327 9.33325L13.5866 13.5866Z" stroke="#292D32" stroke-linecap="round" stroke-linejoin="round"/>
<path d="M4.15993 5.31998C4.61326 3.36665 7.5466 3.36665 7.99994 5.31998C8.25994 6.46665 7.53993 7.43998 6.90659 8.03998C6.44659 8.47998 5.71994 8.47998 5.25327 8.03998C4.61994 7.43998 3.89326 6.46665 4.15993 5.31998Z" stroke="#292D32"/>
<path d="M6.06307 5.80013H6.06906" stroke="#292D32" stroke-width="1.33333" stroke-linecap="round" stroke-linejoin="round"/>
</svg>
