<svg width="28" height="28" viewBox="0 0 28 28" fill="none" xmlns="http://www.w3.org/2000/svg">
<path d="M3.51172 13.0901V18.3284C3.51172 23.5668 5.61172 25.6668 10.8501 25.6668H17.1384C22.3767 25.6668 24.4767 23.5668 24.4767 18.3284V13.0901" stroke="#292D32" stroke-width="1.75" stroke-linecap="round" stroke-linejoin="round"/>
<path d="M14 13.9999C16.135 13.9999 17.71 12.2616 17.5 10.1266L16.73 2.33325H11.2817L10.5 10.1266C10.29 12.2616 11.865 13.9999 14 13.9999Z" stroke="#292D32" stroke-width="1.75" stroke-linecap="round" stroke-linejoin="round"/>
<path d="M21.3617 13.9999C23.7183 13.9999 25.445 12.0866 25.2117 9.74159L24.885 6.53325C24.465 3.49992 23.2984 2.33325 20.2417 2.33325H16.6833L17.5 10.5116C17.6983 12.4366 19.4367 13.9999 21.3617 13.9999Z" stroke="#292D32" stroke-width="1.75" stroke-linecap="round" stroke-linejoin="round"/>
<path d="M6.58011 13.9999C8.50511 13.9999 10.2434 12.4366 10.4301 10.5116L10.6868 7.93325L11.2468 2.33325H7.68844C4.63177 2.33325 3.46511 3.49992 3.04511 6.53325L2.73011 9.74159C2.49677 12.0866 4.22344 13.9999 6.58011 13.9999Z" stroke="#292D32" stroke-width="1.75" stroke-linecap="round" stroke-linejoin="round"/>
<path d="M13.9999 19.8333C12.0516 19.8333 11.0833 20.8016 11.0833 22.7499V25.6666H16.9166V22.7499C16.9166 20.8016 15.9483 19.8333 13.9999 19.8333Z" stroke="#292D32" stroke-width="1.75" stroke-linecap="round" stroke-linejoin="round"/>
</svg>
